<?xml version="1.0" encoding="UTF-8"?>
<svg id="Layer_1" data-name="Layer 1" xmlns="http://www.w3.org/2000/svg" viewBox="0 0 439 511.91">
  <defs>
    <style>
      .cls-1 {
        fill: #fbf5f3;
      }

      .cls-2 {
        fill: #cc2334;
      }

      .cls-3 {
        fill: #f22c3f;
      }

      .cls-4 {
        fill: #119bba;
      }

      .cls-5 {
        fill: #1ac8ed;
      }

      .cls-6 {
        fill: #a7e846;
      }

      .cls-7 {
        fill: #520b12;
      }
    </style>
  </defs>
  <g>
    <path class="cls-1" d="m219.5,119.73l135.55-58.04,33.45,50.37s-75.94,1.26-75.94,145.99c0,180.86,75.83,180.92,75.83,180.92l-28.57,44.19-140.32-48.77"/>
    <path class="cls-1" d="m219.5,119.73L83.95,61.69l-33.45,50.37s75.94,1.26,75.94,145.99c0,180.86-75.83,180.92-75.83,180.92l28.57,44.19,140.32-48.77"/>
  </g>
  <path class="cls-4" d="m219.5,218.92c-11.57-.09-219.5-.95-219.5,60.13,0,64.21,202.85,65.98,218.99,66.02h0s.18,0,.51,0c.33,0,.51,0,.51,0h0c16.14-.04,218.99-1.81,218.99-66.02s-207.93-60.22-219.5-60.13Zm-.14,94.98h0s-.13,0-.37,0c-.24,0-.37,0-.37,0h0c-11.82-.03-160.27-1.16-160.27-42.31s152.18-38.6,160.65-38.53c8.46-.06,160.65-.61,160.65,38.53,0,41.15-148.46,42.29-160.27,42.31Z"/>
  <path class="cls-5" d="m219.5,205.98C207.93,205.88,0,205.03,0,266.1,0,330.32,202.85,332.09,218.99,332.13h0s.18,0,.51,0c.33,0,.51,0,.51,0h0c16.14-.04,218.99-1.81,218.99-66.02s-207.93-60.22-219.5-60.13Zm-.14,94.98h0s-.13,0-.37,0c-.24,0-.37,0-.37,0h0c-11.82-.03-160.27-1.16-160.27-42.31s152.18-38.6,160.65-38.53c8.46-.06,160.65-.61,160.65,38.53,0,41.15-148.46,42.29-160.27,42.31Z"/>
  <path class="cls-1" d="m312.99,258.05c0-.49-186.11.59-186.1.1l97.64-.11h88.48c.51-143.27,75.92-145.99,75.92-145.99l-33.45-50.37-135.55,58.04L84.37,61.69l-33.45,50.37s75.94,1.26,75.94,145.99"/>
  <path class="cls-2" d="m138.03,47.05l81.47,42.04h0l81.47-42.04s-19.74,7.98-80.54,7.53c-64.74,0-82.41-7.53-82.41-7.53Z"/>
  <path class="cls-6" d="m223.15,71.55s-10.58-26.29,4.28-43.45C241.8,11.49,280.59,0,280.59,0c0,0,11.03,37.99-14.33,52.18"/>
  <path class="cls-7" d="m213.27,67.37s4.49-28.83-5.7-58.01c-1.62-4.63,19.49-7.5,20.44-2.7,7.72,39.14.33,60.64.33,60.64"/>
  <path class="cls-3" d="m391.97,107.29s5.75-95.84-90.99-60.24c-23.46,8.63-42.17,13.98-55.7,17.25-16.96,4.1-34.59,4.1-51.54,0-13.54-3.27-32.24-8.62-55.7-17.25C41.28,11.45,47.03,107.29,47.03,107.29c-.61,3.45,2.91,5.99,5.76,4.19,30.83-19.49,57.13-11.12,82,3.95,1.54.93,3.39,1.02,5.01.29,37.7-16.99,67.26.2,76.6,6.87,1.88,1.34,4.32,1.34,6.2,0,9.34-6.67,38.9-23.86,76.6-6.87,1.63.73,3.48.64,5.01-.29,24.87-15.07,51.16-23.44,82-3.95,2.85,1.8,6.37-.74,5.76-4.19Z"/>
  <path class="cls-3" d="m386.21,439.55c-30.83,19.49-57.13,11.12-82-3.95-1.54-.93-3.39-1.02-5.02-.29-37.7,16.99-67.26-.2-76.6-6.87-1.88-1.34-4.32-1.34-6.2,0-9.34,6.67-38.9,23.86-76.6,6.87-1.63-.73-3.48-.64-5.02.29-24.87,15.07-51.16,23.44-82,3.95-2.85-1.8-6.37.74-5.76,4.19,0,0-5.75,95.84,90.99,60.24,23.46-8.63,42.17-13.98,55.7-17.25,16.96-4.1,34.59-4.1,51.54,0,13.54,3.27,32.24,8.62,55.7,17.25,96.74,35.6,90.99-60.24,90.99-60.24.61-3.45-2.91-5.99-5.76-4.19Z"/>
</svg>