<?xml version="1.0" encoding="UTF-8"?>
<svg xmlns="http://www.w3.org/2000/svg" xmlns:xlink="http://www.w3.org/1999/xlink" viewBox="0 0 512 512">
  <defs>
    <style>
      .cls-1 {
        fill: #fbf5f3;
      }

      .cls-2 {
        fill: #cc2334;
      }

      .cls-3 {
        fill: #f22c3f;
      }

      .cls-4 {
        fill: #119bba;
      }

      .cls-5 {
        fill: #1ac8ed;
      }

      .cls-6 {
        fill: #a7e846;
      }

      .cls-7 {
        fill: #520b12;
      }

      .cls-8 {
        fill: url(#linear-gradient);
      }
    </style>
    <linearGradient id="linear-gradient" x1="74.98" y1="74.98" x2="437.02" y2="437.02" gradientUnits="userSpaceOnUse">
      <stop offset="0" stop-color="#1c448e"/>
      <stop offset="0" stop-color="#1c438e"/>
      <stop offset=".3" stop-color="#4133ae"/>
      <stop offset=".57" stop-color="#5c26c5"/>
      <stop offset=".81" stop-color="#6d1fd3"/>
      <stop offset="1" stop-color="#731dd8"/>
    </linearGradient>
  </defs>
  <g id="Layer_2" data-name="Layer 2">
    <circle class="cls-8" cx="256" cy="256" r="256"/>
  </g>
  <g id="Layer_1" data-name="Layer 1">
    <path class="cls-1" d="m256,365.27l-98.24,34.14-20-30.94s53.09-.04,53.09-126.66c0-101.33-53.16-102.21-53.16-102.21l23.42-35.26s94.9,40.64,94.9,40.64l94.9-40.64,23.42,35.26s-53.16.88-53.16,102.21c0,126.62,53.09,126.66,53.09,126.66l-20,30.94-98.24-34.14Z"/>
    <path class="cls-4" d="m256,214.42c-7.94-.07-153.68-.69-153.68,42.1,0,44.99,142.19,46.2,153.32,46.22h0s.11,0,.26,0c.04,0,.06,0,.1,0,.04,0,.06,0,.1,0,.15,0,.26,0,.26,0h0c11.13-.03,153.32-1.23,153.32-46.22s-145.73-42.16-153.68-42.1Zm-.1,66.5h0s-.08,0-.2,0c-.05,0-.08,0-.12,0-.12,0-.2,0-.2,0h0c-8.14-.02-112.21-.79-112.21-29.62s106.66-27.02,112.47-26.98c5.81-.04,112.47-.44,112.47,26.98,0,28.83-104.07,29.61-112.21,29.62Z"/>
    <path class="cls-5" d="m256,205.36c-7.94-.07-153.68-.69-153.68,42.1,0,44.99,142.19,46.2,153.32,46.22h0s.11,0,.26,0c.04,0,.06,0,.1,0,.04,0,.06,0,.1,0,.15,0,.26,0,.26,0h0c11.13-.03,153.32-1.23,153.32-46.22s-145.73-42.16-153.68-42.1Zm-.1,66.5h0s-.08,0-.2,0c-.05,0-.08,0-.12,0-.12,0-.2,0-.2,0h0c-8.14-.02-112.21-.79-112.21-29.62s106.66-27.02,112.47-26.98c5.81-.04,112.47-.44,112.47,26.98,0,28.83-104.07,29.61-112.21,29.62Z"/>
    <path class="cls-1" d="m321.16,241.81c0-.34-130.3.41-130.29.07l68.36-.07h61.95c.26-101.86,53.16-102.21,53.16-102.21l-23.42-35.26-94.9,40.64-94.9-40.64-23.42,35.26s53.16.88,53.16,102.21"/>
    <path class="cls-2" d="m198.96,94.09l57.04,29.43h0l57.04-29.43s-13.82,5.59-56.38,5.27c-45.33,0-57.7-5.27-57.7-5.27Z"/>
    <path class="cls-6" d="m258.56,111.24s-7.41-18.4,2.99-30.42c10.07-11.63,37.22-19.67,37.22-19.67,0,0,7.72,26.6-10.03,36.54"/>
    <path class="cls-7" d="m251.64,108.32s3.14-20.18-3.99-40.62c-1.13-3.24,13.65-5.25,14.31-1.89,5.4,27.4.23,42.46.23,42.46"/>
    <path class="cls-3" d="m376.75,136.26s4.02-67.1-63.71-42.18c-16.43,6.04-29.52,9.79-39,12.08-11.87,2.87-24.21,2.87-36.09,0-9.48-2.29-22.57-6.03-39-12.08-67.73-24.92-63.71,42.18-63.71,42.18-.43,2.42,2.04,4.19,4.03,2.93,21.59-13.65,40-7.79,57.41,2.77,1.08.65,2.37.72,3.51.2,26.39-11.89,47.09.14,53.63,4.81,1.32.94,3.03.94,4.34,0,6.54-4.67,27.23-16.7,53.63-4.81,1.14.51,2.44.45,3.51-.2,17.41-10.55,35.82-16.41,57.41-2.77,1.99,1.26,4.46-.52,4.03-2.93Z"/>
    <path class="cls-3" d="m372.72,368.89c-21.59,13.65-40,7.79-57.41-2.77-1.08-.65-2.37-.72-3.51-.2-26.39,11.89-47.09-.14-53.63-4.81-1.32-.94-3.03-.94-4.34,0-6.54,4.67-27.23,16.7-53.63,4.81-1.14-.51-2.44-.45-3.51.2-17.41,10.55-35.82,16.41-57.41,2.77-1.99-1.26-4.46.52-4.03,2.93,0,0-4.02,67.1,63.71,42.18,16.43-6.04,29.52-9.79,39-12.08,11.87-2.87,24.21-2.87,36.09,0,9.48,2.29,22.57,6.03,39,12.08,67.73,24.92,63.71-42.18,63.71-42.18.43-2.42-2.04-4.19-4.03-2.93Z"/>
  </g>
</svg>